IKResults
version=1
nRows=8
nColumns=40
inDegrees=yes

Units are S.I. units (second, meters, Newtons, ...)
If the header above contains a line with 'inDegrees', this indicates whether rotational values are in degrees (yes) or radians (no).

endheader
time	pelvis_tilt	pelvis_list	pelvis_rotation	pelvis_tx	pelvis_ty	pelvis_tz	hip_flexion_r	hip_adduction_r	hip_rotation_r	knee_angle_r	knee_angle_r_beta	ankle_angle_r	subtalar_angle_r	mtp_angle_r	hip_flexion_l	hip_adduction_l	hip_rotation_l	knee_angle_l	knee_angle_l_beta	ankle_angle_l	subtalar_angle_l	mtp_angle_l	lumbar_extension	lumbar_bending	lumbar_rotation	arm_flex_r	arm_add_r	arm_rot_r	elbow_flex_r	pro_sup_r	wrist_flex_r	wrist_dev_r	arm_flex_l	arm_add_l	arm_rot_l	elbow_flex_l	pro_sup_l	wrist_flex_l	wrist_dev_l
      0.80000000	      5.45386499	      2.22925882	      1.82438817	     -0.66903718	      0.94980157	     -0.25569463	     17.14290739	     -9.69994740	     -4.36426570	     70.02576647	      1.22218019	     -6.93799132	      0.00000000	      0.00000000	     -1.87206605	      2.45591025	    -10.16040028	     13.60311831	      0.23741920	      2.27802107	      0.00000000	      0.00000000	    -12.26240987	     -3.62379255	     -2.71303775	      3.43253449	    -21.58670628	     43.75954857	     32.87515732	     86.30430200	      0.00000000	      0.00000000	      8.01570233	    -22.53998077	     58.45624083	     31.52420200	     87.62140108	      0.00000000	      0.00000000
      0.80500000	      5.36601520	      2.05415996	      2.03330589	     -0.66075000	      0.94991652	     -0.25658856	     18.22650641	     -9.61310244	     -4.68634191	     69.67464444	      1.21605195	     -6.49828821	      0.00000000	      0.00000000	     -2.67643108	      2.35868003	    -10.35573621	     13.04592386	      0.22769433	      2.52497085	      0.00000000	      0.00000000	    -12.16978467	     -3.30236180	     -2.92631485	      2.91147246	    -21.42567749	     43.95514048	     32.49643278	     86.29368592	      0.00000000	      0.00000000	      8.85073580	    -22.79850245	     58.33240407	     32.10100525	     87.67334196	      0.00000000	      0.00000000
      0.81000000	      5.37701655	      1.89753120	      2.23771156	     -0.65227405	      0.95015718	     -0.25725277	     19.08948186	     -9.46418423	     -4.93963630	     69.16193054	      1.20710340	     -5.90558123	      0.00000000	      0.00000000	     -3.72419848	      2.29631221	    -10.37585509	     12.23716726	      0.21357886	      2.73296481	      0.00000000	      0.00000000	    -12.17728547	     -3.01223484	     -3.19745226	      2.46746254	    -21.18959348	     44.20012406	     32.00062508	     86.30005750	      0.00000000	      0.00000000	      9.62445160	    -23.19498796	     58.23347815	     32.87412386	     87.72100724	      0.00000000	      0.00000000
      0.81500000	      6.19875166	      1.92759245	      2.43126035	     -0.64310354	      0.95185392	     -0.25829721	     18.72345500	     -9.59374262	     -5.36206996	     68.25912696	      1.19134651	     -5.25340979	      0.00000000	      0.00000000	     -6.14909572	      2.52867896	    -10.18265484	     10.56801186	      0.18444660	      2.16024567	      0.00000000	      0.00000000	    -13.06403501	     -2.86529858	     -3.75279867	      2.41238620	    -20.95967563	     45.23323831	     31.28438252	     86.31946584	      0.00000000	      0.00000000	     10.14822203	    -23.68176522	     57.30585534	     33.84448578	     87.74707483	      0.00000000	      0.00000000
      0.82000000	      6.10010825	      1.77874996	      2.62286416	     -0.63487096	      0.95161097	     -0.25909084	     19.72426103	     -9.50697629	     -5.64202502	     67.65088433	      1.18073067	     -5.01712456	      0.00000000	      0.00000000	     -6.90920190	      2.44572148	    -10.31354377	     10.08528985	      0.17602151	      2.45119579	      0.00000000	      0.00000000	    -12.96398707	     -2.57527632	     -4.00278122	      1.92353254	    -20.83509872	     45.47098309	     30.97733662	     86.28637465	      0.00000000	      0.00000000	     10.92833932	    -24.01684568	     57.12689720	     34.49499324	     87.78153151	      0.00000000	      0.00000000
      0.82500000	      6.70165710	      1.67162896	      2.97994055	     -0.62604253	      0.95260474	     -0.26007980	     19.61014591	     -9.51858839	     -6.23630770	     66.69326449	      1.16401705	     -4.53606367	      0.00000000	      0.00000000	     -8.88322025	      2.42600560	     -9.88178560	      8.75747346	      0.15284675	      2.21349383	      0.00000000	      0.00000000	    -13.62411252	     -2.27197755	     -4.65403759	      1.85588360	    -20.57758586	     46.56395304	     30.23436661	     86.34017074	      0.00000000	      0.00000000	     11.38531821	    -24.55959668	     56.09383700	     35.62437948	     87.82396857	      0.00000000	      0.00000000
      0.83000000	      6.57934346	      1.61479983	      3.14956851	     -0.61777812	      0.95208679	     -0.26086001	     20.58650603	     -9.52889170	     -6.45507543	     65.97915012	      1.15155341	     -4.32323518	      0.00000000	      0.00000000	     -9.57141849	      2.44834855	    -10.10768383	      8.32844688	      0.14535882	      2.49496519	      0.00000000	      0.00000000	    -13.49950805	     -2.08966431	     -4.89134967	      1.36434497	    -20.41335065	     46.71618956	     29.86765807	     86.31835319	      0.00000000	      0.00000000	     12.17362296	    -24.89409787	     55.97611360	     36.20722856	     87.86025777	      0.00000000	      0.00000000
      0.83500000	      6.61671933	      1.51504748	      3.34988837	     -0.60943123	      0.95167805	     -0.26148539	     21.32240662	     -9.44987296	     -6.69857887	     65.17420202	      1.13750441	     -4.01485344	      0.00000000	      0.00000000	    -10.58401049	      2.40643441	    -10.14276249	      7.61116577	      0.13283990	      2.69038939	      0.00000000	      0.00000000	    -13.54355936	     -1.86031665	     -5.18272712	      0.94051420	    -20.16900933	     46.85350720	     29.34381859	     86.30415063	      0.00000000	      0.00000000	     12.91922383	    -25.38618914	     55.83195611	     37.08842356	     87.87899663	      0.00000000	      0.00000000
